# xmcd CD database file
#
# Track frame offsets:
#	150
#	16932
#	34472
#	51708
#	70264
#	86522
#	111116
#	131141
#	150274
#	169758
#	188209
#
# Disc length: 3087 seconds
#
# Revision: 0
# Processed by: cddbd v1.5.1PL0 Copyright (c) Steve Scherf et al.
# Submitted via: CDex 1.50
#
DISCID=940c0d0b
DTITLE=Demo Cates - Smooth... Try Something New
DYEAR=2004
DGENRE=Jazz
TTITLE0=I'll try something new
TTITLE1=Just One Kiss
TTITLE2=A Vow
TTITLE3=Ready For Love (duet with Suzy Quinn)
TTITLE4=Mon Ami
TTITLE5=As I Watch You Grow (Little Sunflower)
TTITLE6=Loves Surpassing Way
TTITLE7=Tres Veces
TTITLE8=Peace Is Paradise
TTITLE9=We Can Play That Thang
TTITLE10=Oh My Father
EXTD=YEAR: 2004
EXTT0=
EXTT1=
EXTT2=
EXTT3=
EXTT4=
EXTT5=
EXTT6=
EXTT7=
EXTT8=
EXTT9=
EXTT10=
PLAYORDER=
